<?xml version="1.0" encoding="UTF-8" standalone="no"?><!-- Generator: Gravit.io --><svg xmlns="http://www.w3.org/2000/svg" xmlns:xlink="http://www.w3.org/1999/xlink" style="isolation:isolate" viewBox="2023.78 513.122 315.7 666.338" width="315.7pt" height="666.338pt"><path d=" M 2180.23 513.122 C 2275.22 672.384 2328.31 764.425 2339.48 789.244 L 2172.32 839.546 L 2172.32 842.331 C 2253.95 939.81 2294.78 989.331 2294.78 990.879 L 2132.73 1068.17 C 2161.91 1129.33 2177.74 1165.48 2180.23 1176.66 L 2180.23 1179.46 C 2176.81 1177.91 2141.42 1135.37 2074.07 1051.87 C 2139.24 1010.58 2176.5 989.478 2185.82 988.55 L 2185.82 985.75 L 2023.78 815.788 C 2035.88 806.797 2092.54 782.892 2193.73 744.086 L 2193.73 738.957 L 2039.61 550.38 C 2039.61 544.175 2086.48 531.751 2180.23 513.122 Z " fill="rgb(0,0,0)"/></svg>