<?xml version="1.0" encoding="UTF-8" standalone="no"?><!-- Generator: Gravit.io --><svg xmlns="http://www.w3.org/2000/svg" xmlns:xlink="http://www.w3.org/1999/xlink" style="isolation:isolate" viewBox="2064.98 1716.65 233.3 665.86" width="233.3pt" height="665.86pt"><path d=" M 2064.98 1716.65 C 2069.33 1719.14 2147.09 1818.95 2298.28 2016.06 L 2298.28 2021.65 L 2228.89 2021.65 L 2228.89 2024.43 L 2298.28 2124.55 C 2298.28 2128.28 2296.4 2130.13 2292.69 2130.13 L 2214.93 2130.13 L 2214.93 2132.93 C 2270.49 2296.53 2298.28 2379.73 2298.28 2382.51 L 2295.48 2382.51 C 2259.78 2334.08 2188.53 2229.63 2081.76 2069.13 L 2087.34 2066.35 L 2153.93 2066.35 L 2081.76 1960.64 L 2087.34 1957.84 L 2165.1 1957.84 C 2101.46 1811.33 2068.08 1731.86 2064.98 1719.44 L 2064.98 1716.65 Z " fill="rgb(0,0,0)"/></svg>