<?xml version="1.0" encoding="UTF-8" standalone="no"?><!-- Generator: Gravit.io --><svg xmlns="http://www.w3.org/2000/svg" xmlns:xlink="http://www.w3.org/1999/xlink" style="isolation:isolate" viewBox="2591.92 1716.42 333.41 666.33" width="333.41pt" height="666.33pt"><path d=" M 2917.4 1716.42 L 2925.33 1716.42 C 2920.04 1760.81 2917.4 1796.97 2917.4 1824.92 L 2912.29 1827.25 L 2894.13 1817 C 2882.01 1898.33 2874.26 1939.77 2870.84 1941.32 L 2868.06 1941.32 C 2863.7 1941.32 2859.51 1934.34 2855.49 1920.36 L 2852.69 1920.36 C 2847.08 1920.36 2842.74 1946.29 2839.64 1998.14 L 2834.53 1998.14 C 2816.83 1986.02 2807.37 1979.97 2806.13 1979.97 L 2806.13 1985.1 C 2806.13 2003.72 2805.35 2057.9 2803.8 2147.6 C 2800.38 2149.47 2797.74 2150.4 2795.88 2150.4 L 2692.51 2070.31 L 2690.18 2070.31 C 2633.36 2268.36 2602.33 2372.51 2597.05 2382.75 L 2594.72 2382.75 C 2594.72 2380.89 2593.78 2379.95 2591.92 2379.95 C 2621.1 2045.32 2637.4 1873.19 2640.82 1863.56 L 2643.61 1863.56 C 2645.46 1864.18 2686.76 1924.4 2767.47 2044.23 L 2767.47 2039.11 C 2767.47 2025.46 2762.34 1966.17 2752.11 1861.23 L 2757.23 1858.43 C 2758.77 1858.43 2776.78 1880.01 2811.24 1923.16 L 2814.04 1918.04 C 2816.21 1843.86 2820.56 1806.76 2827.07 1806.76 C 2839.8 1826.63 2847.56 1839.51 2850.36 1845.41 C 2854.07 1845.41 2860.91 1804.12 2870.84 1721.54 L 2875.97 1719.22 C 2891.48 1748.09 2899.24 1766.1 2899.24 1773.23 L 2904.37 1773.23 L 2917.4 1716.42 Z " fill="rgb(0,0,0)"/></svg>