<?xml version="1.0" encoding="UTF-8" standalone="no"?><!-- Generator: Gravit.io --><svg xmlns="http://www.w3.org/2000/svg" xmlns:xlink="http://www.w3.org/1999/xlink" style="isolation:isolate" viewBox="1301.5 2905.03 604.86 667.26" width="604.86pt" height="667.26pt"><path d=" M 1606.95 2905.03 L 1809.5 2905.03 L 1809.5 2908.29 L 1619.52 3126.21 L 1847.21 3092.22 L 1850.49 3098.28 C 1848.3 3098.28 1810.74 3155.41 1737.8 3269.63 L 1741.05 3269.63 C 1816.48 3263.42 1870.5 3258.29 1903.1 3254.26 C 1903.1 3256.44 1904.18 3257.53 1906.36 3257.53 C 1755.17 3464.59 1677.27 3569.51 1672.61 3572.29 L 1672.61 3566.24 C 1737.49 3441.14 1779.08 3359.03 1797.4 3319.92 C 1729.72 3348.79 1688.11 3365.4 1672.61 3369.75 L 1672.61 3366.49 L 1728.48 3154.61 C 1609.28 3179.46 1541.76 3201.18 1525.93 3219.81 C 1479.36 3246.81 1454.38 3260.31 1450.96 3260.31 L 1450.96 3263.57 C 1456.55 3263.57 1501.25 3269.79 1585.06 3282.2 L 1585.06 3285.46 C 1547.5 3314.96 1454.06 3383.57 1304.76 3491.28 L 1301.5 3491.28 L 1472.85 3307.34 L 1320.11 3285.46 L 1320.11 3279.41 C 1438.7 3203.98 1497.99 3162.38 1497.99 3154.61 C 1565.03 2995.05 1601.35 2911.87 1606.95 2905.03 Z " fill="rgb(0,0,0)"/></svg>