<?xml version="1.0" encoding="UTF-8" standalone="no"?><!-- Generator: Gravit.io --><svg xmlns="http://www.w3.org/2000/svg" xmlns:xlink="http://www.w3.org/1999/xlink" style="isolation:isolate" viewBox="2155.29 2905.5 535.48 666.33" width="535.48pt" height="666.33pt"><path d=" M 2436.07 2905.5 L 2436.07 2910.63 L 2356.45 3068.02 L 2358.78 3068.02 C 2495.05 2989.78 2577.47 2943.68 2606.03 2929.71 C 2451.13 3096.11 2363.11 3191.4 2342.01 3215.62 L 2346.67 3215.62 C 2561.48 3126.84 2676.18 3080.9 2690.77 3077.79 L 2165.07 3571.83 L 2165.07 3569.5 L 2472.4 3225.39 L 2470.07 3225.39 C 2326.96 3285.32 2222.02 3328.15 2155.29 3353.91 L 2155.29 3351.58 C 2347.74 3152.91 2445.38 3053.57 2448.18 3053.57 L 2448.18 3051.24 L 2443.52 3051.24 C 2319.66 3139.41 2251.06 3186.13 2237.7 3191.4 L 2237.7 3189.08 C 2353.18 3021.77 2419.29 2927.23 2436.07 2905.5 Z " fill="rgb(0,0,0)"/></svg>