<?xml version="1.0" encoding="UTF-8" standalone="no"?><!-- Generator: Gravit.io --><svg xmlns="http://www.w3.org/2000/svg" xmlns:xlink="http://www.w3.org/1999/xlink" style="isolation:isolate" viewBox="2874.17 2905.5 519.64 666.33" width="519.64pt" height="666.33pt"><path d=" M 2874.17 2905.5 L 3079.04 2905.5 C 3084 2906.13 3086.49 2908.62 3086.49 2912.95 L 3097.67 3154.62 L 3100.93 3154.62 C 3106.21 3154.62 3203.83 3135.06 3393.81 3095.94 L 3393.81 3099.67 C 3223.08 3316.67 3129.17 3432.61 3112.1 3447.5 C 3043.19 3403.43 3006.55 3381.38 3002.21 3381.38 C 3033.87 3479.79 3053.43 3543.27 3060.89 3571.83 C 3056.52 3571.83 3005.31 3469.4 2907.22 3264.51 L 2910.94 3264.51 L 3090.22 3373.94 L 3243.88 3183.95 L 3240.15 3183.95 C 3117.53 3230.21 3052.96 3253.33 3046.44 3253.33 L 3039 3253.33 L 2874.17 2909.22 L 2874.17 2905.5 Z " fill="rgb(0,0,0)"/></svg>