<?xml version="1.0" encoding="UTF-8" standalone="no"?><!-- Generator: Gravit.io --><svg xmlns="http://www.w3.org/2000/svg" xmlns:xlink="http://www.w3.org/1999/xlink" style="isolation:isolate" viewBox="3050.43 1715.72 332.47 667.72" width="332.47pt" height="667.72pt"><path d=" M 3050.43 1715.72 L 3051.83 1715.72 C 3053.38 1715.72 3082.87 1774.71 3140.31 1892.66 L 3141.71 1892.66 C 3142 1891.11 3162.96 1871.4 3204.57 1833.53 L 3207.37 1833.53 C 3240.26 1964.52 3262.77 2049.57 3274.88 2088.69 L 3341 2053.78 C 3342.86 2061.53 3356.83 2170.96 3382.9 2382.04 L 3380.12 2383.44 C 3350.31 2318.25 3318.49 2246.7 3284.66 2168.78 C 3283.09 2168.78 3262.61 2178.09 3223.2 2196.72 L 3220.4 2196.72 C 3216.36 2172.2 3204.1 2103.91 3183.61 1991.85 C 3133.63 2022.88 3107.4 2038.4 3104.92 2038.4 C 3071.39 1834.15 3053.23 1726.58 3050.43 1715.72 Z " fill="rgb(0,0,0)"/></svg>