<?xml version="1.0" encoding="UTF-8" standalone="no"?><!-- Generator: Gravit.io --><svg xmlns="http://www.w3.org/2000/svg" xmlns:xlink="http://www.w3.org/1999/xlink" style="isolation:isolate" viewBox="2548.93 512.658 264.5 667.262" width="264.5pt" height="667.262pt"><path d=" M 2797.58 512.658 L 2804.57 512.658 L 2808.77 514.986 L 2744.97 730.578 L 2808.77 730.578 L 2813.43 732.907 L 2711.91 922.427 L 2769.18 922.427 C 2771.35 922.427 2773.52 924.608 2775.7 928.941 L 2775.7 931.269 C 2701.2 1023.47 2629.33 1106.35 2560.12 1179.92 L 2557.79 1179.92 C 2567.72 1137.09 2586.81 1076.09 2615.06 996.929 L 2615.06 995.057 C 2570.97 993.509 2548.93 990.562 2548.93 986.214 C 2559.18 971.623 2592.23 910.636 2648.12 803.223 L 2586.19 799.023 L 2586.19 794.366 C 2601.08 772.641 2668.76 681.691 2789.21 521.5 C 2789.21 519.334 2792 516.386 2797.58 512.658 Z " fill="rgb(0,0,0)"/></svg>