<?xml version="1.0" encoding="UTF-8" standalone="no"?><!-- Generator: Gravit.io --><svg xmlns="http://www.w3.org/2000/svg" xmlns:xlink="http://www.w3.org/1999/xlink" style="isolation:isolate" viewBox="3495.36 2905.5 245.87 666.33" width="245.87pt" height="666.33pt"><path d=" M 3508.41 2905.5 L 3511.21 2905.5 C 3522.38 2919.47 3543.17 2960.46 3573.59 3028.43 C 3635.36 3091.14 3667.65 3127.62 3670.45 3137.86 C 3675.73 3153.69 3678.37 3166.88 3678.37 3177.43 L 3673.24 3177.43 C 3657.41 3150.74 3646.08 3135.06 3639.25 3130.4 L 3639.25 3135.53 C 3648.86 3192.95 3658.34 3221.66 3667.65 3221.66 C 3678.21 3221.66 3686.89 3247.75 3693.72 3299.89 C 3707.7 3313.25 3714.68 3329.86 3714.68 3349.72 C 3713.12 3361.51 3712.35 3371.14 3712.35 3378.6 L 3709.57 3378.6 C 3673.55 3311.24 3647.48 3264.21 3631.34 3237.51 C 3612.09 3204.61 3602.46 3181.94 3602.46 3169.52 L 3599.67 3169.52 C 3593.15 3172.63 3587.09 3182.25 3581.51 3198.39 C 3581.51 3202.74 3591.13 3220.11 3610.38 3250.53 C 3610.38 3254.57 3622.48 3278.02 3646.69 3320.85 C 3662.52 3349.1 3694.03 3432.76 3741.23 3571.83 L 3738.43 3571.83 C 3685.96 3507.89 3641.58 3437.27 3605.27 3359.97 C 3589.42 3319.3 3578.87 3289.81 3573.59 3271.49 C 3558.06 3286.7 3550.31 3309.37 3550.31 3339.48 L 3550.31 3367.88 L 3552.63 3393.95 L 3550.31 3393.95 C 3534.48 3371.61 3526.56 3348.94 3526.56 3325.96 L 3526.56 3312.94 C 3526.56 3303.31 3530.13 3287.63 3537.28 3265.91 L 3524.23 3198.39 C 3524.23 3187.53 3533.7 3174.34 3552.63 3158.8 L 3555.43 3145.77 L 3555.43 3130.4 C 3555.43 3121.71 3552.02 3116.43 3545.19 3114.57 L 3508.41 3187.68 L 3503.28 3187.68 C 3503.28 3180.85 3500.64 3177.43 3495.36 3177.43 C 3495.36 3157.57 3505.75 3123.58 3526.56 3075.46 C 3530.28 3068.63 3532.15 3059.01 3532.15 3046.59 L 3532.15 3043.8 L 3508.41 2905.5 Z " fill="rgb(0,0,0)"/></svg>