<?xml version="1.0" encoding="UTF-8" standalone="no"?><!-- Generator: Gravit.io --><svg xmlns="http://www.w3.org/2000/svg" xmlns:xlink="http://www.w3.org/1999/xlink" style="isolation:isolate" viewBox="754.441 512.658 289.619 667.262" width="289.619pt" height="667.262pt"><path d=" M 991.905 512.658 L 1025.91 512.658 C 1036.77 515.767 1042.83 517.315 1044.06 517.315 L 1044.06 519.643 C 1044.06 522.134 1009.3 586.083 939.761 711.492 L 942.089 711.492 C 973.747 713.673 989.577 716.768 989.577 720.807 L 885.745 910.783 L 885.745 913.112 L 888.074 913.112 C 918.184 913.112 933.247 915.293 933.247 919.626 C 835.148 1072.05 777.875 1158.81 761.427 1179.92 C 759.246 1179.92 756.917 1177.59 754.441 1172.93 L 806.585 985.286 C 771.818 983.119 754.441 980.171 754.441 976.442 C 800.071 867.791 824.124 806.643 826.615 792.98 C 821.957 790.504 808.442 787.541 786.099 784.122 C 784.537 781.337 783.77 779.008 783.77 777.136 C 797.418 723.135 825.362 637.918 867.587 521.5 C 869.754 521.5 871.92 519.334 874.102 514.986 C 928.737 513.438 967.999 512.658 991.905 512.658 Z " fill="rgb(0,0,0)"/></svg>