<?xml version="1.0" encoding="UTF-8" standalone="no"?><!-- Generator: Gravit.io --><svg xmlns="http://www.w3.org/2000/svg" xmlns:xlink="http://www.w3.org/1999/xlink" style="isolation:isolate" viewBox="818.431 2904.8 328.749 667.72" width="328.749pt" height="667.72pt"><path d=" M 1144.38 2904.8 L 1147.18 2904.8 L 1147.18 2907.59 L 1144.38 2907.59 L 1144.38 2904.8 Z  M 1142.98 2910.39 L 1145.78 2910.39 C 1121.55 3056.92 1104.32 3157.64 1094.1 3212.58 L 1091.3 3212.58 C 1066.77 3174.41 1054.51 3154.69 1054.51 3153.45 L 1051.72 3153.45 C 1051.72 3155.63 1034.33 3244.71 999.564 3420.72 L 998.179 3420.72 C 963.721 3369.19 946.492 3342.04 946.492 3339.24 C 943.691 3340.79 905.195 3411.57 831.002 3551.56 C 823.869 3565.54 819.668 3572.52 818.431 3572.52 L 818.431 3569.72 C 898.209 3367.03 940.434 3262.1 945.092 3254.96 C 946.949 3254.96 959.977 3281.19 984.207 3333.64 L 985.607 3333.64 L 1039.15 3081.74 L 1040.55 3081.74 L 1078.72 3147.85 C 1116.9 3009.42 1138.33 2930.26 1142.98 2910.39 Z " fill="rgb(0,0,0)"/></svg>