<?xml version="1.0" encoding="UTF-8" standalone="no"?><!-- Generator: Gravit.io --><svg xmlns="http://www.w3.org/2000/svg" xmlns:xlink="http://www.w3.org/1999/xlink" style="isolation:isolate" viewBox="219.314 2905.03 480.543 667.26" width="480.543pt" height="667.26pt"><path d=" M 362.276 2905.03 L 364.605 2905.03 C 439.092 2923.97 476.351 2937.78 476.351 2946.48 L 522.924 3244.96 C 521.361 3244.96 520.595 3245.88 520.595 3247.74 L 400.92 3221.67 L 400.92 3224.46 L 471.236 3476.38 L 466.107 3476.38 C 381.038 3282.98 334.317 3174.8 325.946 3151.82 L 331.075 3149.02 L 445.149 3172.31 L 445.149 3169.98 C 396.72 3020.36 369.1 2932.05 362.276 2905.03 Z  M 559.239 3390.69 C 559.239 3392.25 560.167 3393.02 562.024 3393.02 L 522.924 3515.02 L 525.709 3515.02 C 614.168 3460.08 669.584 3423.76 691.942 3406.06 L 699.857 3406.06 C 648.951 3459.77 603.94 3506.49 564.825 3546.22 L 681.699 3567.17 L 681.699 3572.29 L 219.314 3572.29 L 219.314 3567.17 L 377.633 3543.89 C 377.014 3541.42 331.223 3506.8 240.272 3440.05 L 240.272 3437.26 L 242.601 3437.26 C 351.871 3489.11 408.982 3515.02 413.963 3515.02 L 413.963 3512.69 L 390.677 3421.89 L 393.462 3421.89 C 401.539 3429.97 425.754 3460.24 466.107 3512.69 C 472.003 3508.65 494.508 3478.4 533.623 3421.89 L 559.239 3390.69 Z " fill="rgb(0,0,0)"/></svg>