<?xml version="1.0" encoding="UTF-8" standalone="no"?><!-- Generator: Gravit.io --><svg xmlns="http://www.w3.org/2000/svg" xmlns:xlink="http://www.w3.org/1999/xlink" style="isolation:isolate" viewBox="492.502 1715.95 327.338 667.26" width="327.338pt" height="667.26pt"><path d=" M 818.44 1715.95 L 819.84 1715.95 L 819.84 1717.35 L 733.238 1895.23 L 734.623 1895.23 L 796.097 1843.07 L 797.482 1845.87 C 796.244 1846.18 761.786 1898.96 694.122 2004.19 L 694.122 2005.57 C 748.123 1972.68 776.524 1955.92 779.325 1955.29 L 779.325 1956.69 C 705.441 2051.99 648.95 2133.02 609.834 2199.75 C 573.813 2264.95 534.713 2326.1 492.502 2383.21 L 492.502 2380.41 C 600.829 2172.75 659.192 2060.37 667.579 2043.3 C 635.597 2070.3 600.519 2099.18 562.347 2129.91 L 562.347 2128.51 L 694.122 1928.74 L 695.508 1928.74 L 695.508 1925.96 C 664.778 1947.68 617.601 1985.87 553.961 2040.5 L 552.561 2040.5 L 552.561 2037.7 C 645.059 1932.18 733.695 1824.93 818.44 1715.95 Z " fill="rgb(0,0,0)"/></svg>