<?xml version="1.0" encoding="UTF-8" standalone="no"?><!-- Generator: Gravit.io --><svg xmlns="http://www.w3.org/2000/svg" xmlns:xlink="http://www.w3.org/1999/xlink" style="isolation:isolate" viewBox="279.36 1715.95 154.59 667.26" width="154.59pt" height="667.26pt"><path d=" M 427.436 1715.95 L 427.436 1720.14 C 427.436 1733.18 418.121 1797.91 399.507 1914.31 C 408.807 1911.53 420.288 1910.13 433.95 1910.13 C 401.968 2064.72 379.463 2167.93 366.434 2219.78 C 360.848 2217.3 352.153 2211.39 340.362 2202.08 C 336.943 2202.08 323.914 2245.7 301.247 2332.93 C 292.241 2366.46 285.727 2383.21 281.689 2383.21 L 279.36 2379.03 C 299.846 2217.91 312.271 2129.91 316.619 2115.01 C 318.785 2115.01 328.866 2123.08 346.876 2139.22 L 381.806 1971.13 C 362.867 1978.26 349.824 1981.83 342.69 1981.83 L 342.69 1979.97 L 423.25 1718.28 L 427.436 1715.95 Z " fill="rgb(0,0,0)"/></svg>