<?xml version="1.0" encoding="UTF-8" standalone="no"?><!-- Generator: Gravit.io --><svg xmlns="http://www.w3.org/2000/svg" xmlns:xlink="http://www.w3.org/1999/xlink" style="isolation:isolate" viewBox="3047.51 512.658 197.89 667.262" width="197.89pt" height="667.262pt"><path d=" M 3055.88 512.658 L 3058.21 512.658 C 3160.34 541.22 3222.73 560.631 3245.4 570.859 L 3245.4 605.317 C 3242.6 656.547 3241.21 685.258 3241.21 691.462 L 3241.21 717.078 C 3241.21 719.878 3239.81 721.264 3237.01 721.264 C 3219.31 715.678 3207.83 712.877 3202.55 712.877 L 3202.55 715.206 C 3200.99 809.9 3197.42 857.239 3191.85 857.239 C 3180.98 852.891 3169.5 850.71 3157.4 850.71 C 3157.4 877.106 3156.61 923.046 3155.07 988.542 C 3152.27 988.867 3150.87 990.252 3150.87 992.728 C 3145.28 991.181 3140.31 989.014 3135.97 986.214 L 3131.32 986.214 C 3121.39 1097.36 3115.02 1161.92 3112.22 1179.92 L 3109.89 1179.92 L 3058.21 960.142 L 3077.76 962.471 C 3057.59 865.316 3047.51 814.395 3047.51 809.737 L 3049.83 809.737 C 3061.63 811.609 3070.16 814.41 3075.44 818.123 L 3081.96 818.123 L 3051.69 663.534 C 3053.24 663.534 3054.02 662.767 3054.02 661.205 C 3067.05 663.681 3075.6 666.481 3079.64 669.576 L 3086.15 669.576 L 3086.15 663.534 L 3055.88 512.658 Z " fill="rgb(0,0,0)"/></svg>