<?xml version="1.0" encoding="UTF-8" standalone="no"?><!-- Generator: Gravit.io --><svg xmlns="http://www.w3.org/2000/svg" xmlns:xlink="http://www.w3.org/1999/xlink" style="isolation:isolate" viewBox="1520.37 512.429 316.17 667.721" width="316.17pt" height="667.721pt"><path d=" M 1754.6 512.429 C 1757.38 512.739 1758.78 513.977 1758.78 516.143 C 1758.78 530.439 1744.34 615.804 1715.48 772.25 L 1715.48 779.693 C 1717.65 784.97 1722.3 787.608 1729.45 787.608 L 1830.96 787.608 C 1832.81 787.608 1834.68 789.627 1836.54 793.665 L 1836.54 797.394 L 1580.9 1180.15 C 1575.63 1178.91 1572.99 1176.27 1572.99 1172.23 C 1612.11 1023.54 1636.16 934.446 1645.16 904.955 L 1643.31 904.955 C 1561.35 902.788 1520.37 899.531 1520.37 895.183 L 1520.37 893.311 C 1520.37 890.216 1547.68 844.586 1602.33 756.422 C 1689.25 610.527 1738.75 529.82 1750.87 514.286 L 1754.6 512.429 Z " fill="rgb(0,0,0)"/></svg>