<?xml version="1.0" encoding="UTF-8" standalone="no"?><!-- Generator: Gravit.io --><svg xmlns="http://www.w3.org/2000/svg" xmlns:xlink="http://www.w3.org/1999/xlink" style="isolation:isolate" viewBox="1426.07 1715.02 331.06 669.12" width="331.06pt" height="669.12pt"><path d=" M 1592.77 1715.02 C 1642.44 1812.19 1670.06 1885.15 1675.66 1933.87 L 1674.26 1933.87 L 1656.1 1921.3 L 1656.1 1922.7 C 1675.34 1956.54 1695.51 2012.56 1716.63 2090.79 C 1716.63 2093.59 1718.02 2100.25 1720.82 2110.81 C 1719.87 2110.81 1719.42 2111.28 1719.42 2112.21 L 1709.65 2110.81 L 1699.4 2110.81 L 1696.6 2109.42 L 1696.6 2110.81 C 1719.56 2138.75 1736.48 2193.86 1747.36 2276.11 C 1752.02 2325.78 1754.8 2360.86 1755.75 2381.34 C 1756.66 2381.34 1757.13 2381.81 1757.13 2382.74 L 1754.35 2384.14 C 1744.09 2343.48 1722.51 2282.64 1689.62 2201.61 L 1625.36 2085.2 L 1628.16 2083.8 C 1644.92 2089.41 1655.16 2092.19 1658.89 2092.19 C 1649.26 2033.83 1620.7 1971.28 1573.21 1904.53 C 1559.86 1884.37 1547.75 1868.85 1536.9 1857.97 L 1539.68 1857.97 L 1573.21 1870.54 C 1557.38 1831.75 1508.34 1783.16 1426.07 1724.79 L 1426.07 1723.39 C 1528.2 1717.82 1583.77 1715.02 1592.77 1715.02 Z " fill="rgb(0,0,0)"/></svg>