<?xml version="1.0" encoding="UTF-8" standalone="no"?><!-- Generator: Gravit.io --><svg xmlns="http://www.w3.org/2000/svg" xmlns:xlink="http://www.w3.org/1999/xlink" style="isolation:isolate" viewBox="66.284 40.077 235.746 249.63" width="235.746pt" height="249.63pt"><path d=" M 302.03 106.744 C 286.077 106.941 272.52 112.619 261.36 123.78 C 250.068 135.071 244.423 148.759 244.423 164.843 C 244.423 180.927 250.068 194.648 261.36 206.005 C 272.52 217.165 286.077 222.811 302.03 222.942 C 296.252 233.709 288.703 243.753 279.381 253.075 C 254.959 277.497 225.516 289.707 191.05 289.707 C 156.584 289.707 127.174 277.497 102.818 253.075 C 78.462 228.719 66.284 199.309 66.284 164.843 C 66.284 130.377 78.462 100.966 102.818 76.611 C 127.174 52.255 156.584 40.077 191.05 40.077 C 225.516 40.077 254.959 52.255 279.381 76.611 C 288.703 85.933 296.252 95.977 302.03 106.744 Z " fill="rgb(255,255,255)"/></svg>