<?xml version="1.0" encoding="UTF-8" standalone="no"?><!-- Generator: Gravit.io --><svg xmlns="http://www.w3.org/2000/svg" xmlns:xlink="http://www.w3.org/1999/xlink" style="isolation:isolate" viewBox="818.52 346.755 234.37 246.183" width="234.37pt" height="246.183pt"><path d=" M 945.846 416.474 C 931.075 431.179 923.69 449.036 923.69 470.043 C 923.69 491.051 931.075 508.94 945.846 523.711 C 960.486 538.483 978.31 545.868 999.318 545.868 C 1020.13 545.868 1037.85 538.679 1052.49 524.302 C 1046.58 536.054 1038.64 546.918 1028.66 556.897 C 1004.64 580.925 975.618 592.938 941.612 592.938 C 907.672 592.938 878.655 580.925 854.562 556.897 C 830.534 532.87 818.52 503.853 818.52 469.847 C 818.52 435.906 830.534 406.922 854.562 382.894 C 878.655 358.801 907.672 346.755 941.612 346.755 C 975.618 346.755 1004.64 358.801 1028.66 382.894 C 1038.9 393.136 1046.98 404.296 1052.89 416.375 C 1038.12 401.67 1020.26 394.317 999.318 394.317 C 978.31 394.317 960.486 401.703 945.846 416.474 Z " fill="rgb(255,255,255)"/></svg>