<?xml version="1.0" encoding="UTF-8" standalone="no"?><!-- Generator: Gravit.io --><svg xmlns="http://www.w3.org/2000/svg" xmlns:xlink="http://www.w3.org/1999/xlink" style="isolation:isolate" viewBox="1089.19 41.8 230.03 246.184" width="230.03pt" height="246.184pt"><path d=" M 1319.22 103.543 C 1311.02 99.933 1302.09 98.127 1292.44 98.127 C 1273.79 98.127 1257.94 104.626 1244.88 117.625 C 1231.81 130.689 1225.28 146.51 1225.28 165.089 C 1225.28 183.668 1231.81 199.489 1244.88 212.553 C 1257.94 225.617 1273.79 232.15 1292.44 232.15 C 1302.02 232.15 1310.89 230.41 1319.03 226.93 C 1313.64 235.793 1307.08 244.13 1299.33 251.943 C 1275.24 275.97 1246.22 287.984 1212.28 287.984 C 1178.28 287.984 1149.26 275.97 1125.23 251.943 C 1101.2 227.915 1089.19 198.898 1089.19 164.892 C 1089.19 130.952 1101.2 101.968 1125.23 77.94 C 1149.26 53.847 1178.28 41.8 1212.28 41.8 C 1246.22 41.8 1275.24 53.847 1299.33 77.94 C 1307.28 85.884 1313.91 94.418 1319.22 103.543 Z " fill="rgb(255,255,255)"/></svg>