<?xml version="1.0" encoding="UTF-8" standalone="no"?><!-- Generator: Gravit.io --><svg xmlns="http://www.w3.org/2000/svg" xmlns:xlink="http://www.w3.org/1999/xlink" style="isolation:isolate" viewBox="815.862 649.408 239.688 246.183" width="239.688pt" height="246.183pt"><path d=" M 1055.55 731.929 C 1045.24 722.672 1033.09 718.044 1019.11 718.044 C 1003.88 718.044 990.947 723.361 980.312 733.997 C 969.743 744.566 964.458 757.466 964.458 772.697 C 964.458 787.796 969.743 800.663 980.312 811.298 C 990.947 821.999 1003.88 827.349 1019.11 827.349 C 1033.09 827.349 1045.17 822.754 1055.35 813.563 C 1049.44 830.5 1039.66 845.83 1026 859.55 C 1001.91 883.578 972.894 895.591 938.953 895.591 C 904.947 895.591 875.93 883.578 851.903 859.55 C 827.875 835.523 815.862 806.506 815.862 772.5 C 815.862 738.559 827.875 709.575 851.903 685.548 C 875.93 661.454 904.947 649.408 938.953 649.408 C 972.894 649.408 1001.91 661.454 1026 685.548 C 1039.79 699.334 1049.64 714.794 1055.55 731.929 Z " fill="rgb(255,255,255)"/></svg>