<?xml version="1.0" encoding="UTF-8" standalone="no"?><!-- Generator: Gravit.io --><svg xmlns="http://www.w3.org/2000/svg" xmlns:xlink="http://www.w3.org/1999/xlink" style="isolation:isolate" viewBox="1120.29 641.628 167.84 261.743" width="167.84pt" height="261.743pt"><path d=" M 1232.15 679.879 C 1206.71 705.54 1193.98 736.414 1193.98 772.5 C 1193.98 808.585 1206.71 839.379 1232.15 864.879 C 1248.62 881.292 1267.28 892.492 1288.13 898.479 C 1276.47 901.74 1264.15 903.371 1251.16 903.371 C 1215.07 903.371 1184.2 890.54 1158.54 864.879 C 1133.04 839.379 1120.29 808.585 1120.29 772.5 C 1120.29 736.414 1133.04 705.54 1158.54 679.879 C 1184.2 654.379 1215.07 641.628 1251.16 641.628 C 1264.15 641.628 1276.47 643.259 1288.13 646.52 C 1267.28 652.347 1248.62 663.467 1232.15 679.879 Z " fill="rgb(255,255,255)"/></svg>