<?xml version="1.0" encoding="UTF-8" standalone="no"?><!-- Generator: Gravit.io --><svg xmlns="http://www.w3.org/2000/svg" xmlns:xlink="http://www.w3.org/1999/xlink" style="isolation:isolate" viewBox="326.797 40.077 245.987 249.63" width="245.987pt" height="249.63pt"><path d=" M 482.483 123.78 C 471.192 135.137 465.546 148.857 465.546 164.941 C 465.546 181.025 471.192 194.713 482.483 206.005 C 493.841 217.362 507.561 223.041 523.645 223.041 C 539.729 223.041 553.417 217.362 564.709 206.005 C 567.86 202.919 570.552 199.67 572.784 196.256 C 567.532 217.526 556.568 236.499 539.893 253.174 C 515.538 277.529 486.127 289.707 451.661 289.707 C 417.196 289.707 387.752 277.529 363.331 253.174 C 338.975 228.818 326.797 199.407 326.797 164.941 C 326.797 130.476 338.975 101.032 363.331 76.611 C 387.752 52.255 417.196 40.077 451.661 40.077 C 486.127 40.077 515.538 52.255 539.893 76.611 C 556.568 93.286 567.532 112.291 572.784 133.627 C 570.552 130.213 567.86 126.931 564.709 123.78 C 553.417 112.488 539.729 106.842 523.645 106.842 C 507.561 106.842 493.841 112.488 482.483 123.78 Z " fill="rgb(255,255,255)"/></svg>