<?xml version="1.0" encoding="UTF-8" standalone="no"?><!-- Generator: Gravit.io --><svg xmlns="http://www.w3.org/2000/svg" xmlns:xlink="http://www.w3.org/1999/xlink" style="isolation:isolate" viewBox="818.077 40.077 235.253 249.63" width="235.253pt" height="249.63pt"><path d=" M 944.615 164.744 C 944.615 184.177 951.476 200.753 965.196 214.474 C 978.917 228.194 995.493 235.054 1014.93 235.054 C 1029.3 235.054 1042.1 231.313 1053.33 223.829 C 1047.68 234.267 1040.3 244.016 1031.17 253.075 C 1006.82 277.497 977.407 289.707 942.941 289.707 C 908.476 289.707 879.065 277.497 854.709 253.075 C 830.288 228.719 818.077 199.309 818.077 164.843 C 818.077 130.377 830.288 100.966 854.709 76.611 C 879.065 52.255 908.476 40.077 942.941 40.077 C 977.407 40.077 1006.82 52.255 1031.17 76.611 C 1040.1 85.539 1047.42 95.189 1053.13 105.562 C 1041.97 98.144 1029.24 94.434 1014.93 94.434 C 995.493 94.434 978.917 101.295 965.196 115.015 C 951.476 128.736 944.615 145.312 944.615 164.744 Z " fill="rgb(255,255,255)"/></svg>