<?xml version="1.0" encoding="UTF-8" standalone="no"?><!-- Generator: Gravit.io --><svg xmlns="http://www.w3.org/2000/svg" xmlns:xlink="http://www.w3.org/1999/xlink" style="isolation:isolate" viewBox="70.568 339.025 227.178 261.644" width="227.178pt" height="261.644pt"><path d=" M 277.362 397.419 C 257.405 417.442 247.426 441.568 247.426 469.797 C 247.426 498.026 257.405 522.12 277.362 542.077 C 283.73 548.51 290.525 553.894 297.746 558.226 L 293.807 562.264 C 268.335 587.867 237.546 600.669 201.439 600.669 C 165.332 600.669 134.477 587.867 108.874 562.264 C 83.336 536.726 70.568 505.904 70.568 469.797 C 70.568 433.69 83.336 402.835 108.874 377.232 C 134.477 351.76 165.332 339.025 201.439 339.025 C 237.546 339.025 268.335 351.76 293.807 377.232 L 297.746 381.467 C 290.525 385.734 283.73 391.051 277.362 397.419 Z " fill="rgb(255,255,255)"/></svg>