<?xml version="1.0" encoding="UTF-8" standalone="no"?><!-- Generator: Gravit.io --><svg xmlns="http://www.w3.org/2000/svg" xmlns:xlink="http://www.w3.org/1999/xlink" style="isolation:isolate" viewBox="586.072 339.025 212.703 261.644" width="212.703pt" height="261.644pt"><path d=" M 795.033 367.582 C 766.804 367.582 742.678 377.528 722.655 397.419 C 702.697 417.442 692.719 441.568 692.719 469.797 C 692.719 498.026 702.697 522.12 722.655 542.077 C 742.678 562.1 766.804 572.111 795.033 572.111 L 798.578 572.111 C 775.272 591.149 748.028 600.669 716.845 600.669 C 680.738 600.669 649.883 587.867 624.28 562.264 C 598.808 536.726 586.072 505.904 586.072 469.797 C 586.072 433.69 598.808 402.835 624.28 377.232 C 649.883 351.76 680.738 339.025 716.845 339.025 C 748.028 339.025 775.338 348.577 798.775 367.68 L 795.033 367.582 Z " fill="rgb(255,255,255)"/></svg>