<?xml version="1.0" encoding="UTF-8" standalone="no"?><!-- Generator: Gravit.io --><svg xmlns="http://www.w3.org/2000/svg" xmlns:xlink="http://www.w3.org/1999/xlink" style="isolation:isolate" viewBox="329.357 339.025 240.866 261.644" width="240.866pt" height="261.644pt"><path d=" M 570.223 398.601 C 550.922 418.361 541.272 442.093 541.272 469.797 C 541.272 497.567 550.922 521.332 570.223 541.092 C 565.234 548.51 559.358 555.568 552.596 562.264 C 527.125 587.867 496.335 600.669 460.228 600.669 C 424.122 600.669 393.266 587.867 367.663 562.264 C 342.126 536.726 329.357 505.904 329.357 469.797 C 329.357 433.69 342.126 402.835 367.663 377.232 C 393.266 351.76 424.122 339.025 460.228 339.025 C 496.335 339.025 527.125 351.76 552.596 377.232 C 559.358 383.994 565.234 391.117 570.223 398.601 Z " fill="rgb(255,255,255)"/></svg>