<?xml version="1.0" encoding="UTF-8" standalone="no"?><!-- Generator: Gravit.io --><svg xmlns="http://www.w3.org/2000/svg" xmlns:xlink="http://www.w3.org/1999/xlink" style="isolation:isolate" viewBox="1095.89 338.975 216.64 261.743" width="216.64pt" height="261.743pt"><path d=" M 1312.53 371.176 C 1295.79 375.575 1280.82 384.339 1267.62 397.469 C 1247.67 417.491 1237.69 441.617 1237.69 469.847 C 1237.69 498.076 1247.67 522.169 1267.62 542.126 C 1280.82 555.321 1295.79 564.184 1312.53 568.714 C 1288.3 590.05 1259.71 600.718 1226.76 600.718 C 1190.65 600.718 1159.8 587.916 1134.19 562.313 C 1108.66 536.776 1095.89 505.953 1095.89 469.847 C 1095.89 433.74 1108.66 402.885 1134.19 377.281 C 1159.8 351.744 1190.65 338.975 1226.76 338.975 C 1259.78 338.975 1288.37 349.709 1312.53 371.176 Z " fill="rgb(255,255,255)"/></svg>