<?xml version="1.0" encoding="UTF-8" standalone="no"?><!-- Generator: Gravit.io --><svg xmlns="http://www.w3.org/2000/svg" xmlns:xlink="http://www.w3.org/1999/xlink" style="isolation:isolate" viewBox="58.8 641.678 250.713 261.644" width="250.713pt" height="261.644pt"><path d=" M 309.513 719.275 L 309.513 720.949 C 305.181 713.53 299.765 706.572 293.265 700.072 C 273.308 680.181 249.215 670.235 220.986 670.235 C 192.757 670.235 168.631 680.181 148.608 700.072 C 128.651 720.095 118.672 744.221 118.672 772.45 C 118.672 800.68 128.651 824.773 148.608 844.73 C 168.631 864.753 192.757 874.764 220.986 874.764 C 249.215 874.764 273.308 864.753 293.265 844.73 C 299.633 838.362 305.049 831.567 309.513 824.346 L 309.513 826.02 C 303.08 840.135 293.922 853.1 282.039 864.917 C 256.502 890.52 225.68 903.322 189.573 903.322 C 153.466 903.322 122.611 890.52 97.008 864.917 C 71.536 839.38 58.8 808.557 58.8 772.45 C 58.8 736.344 71.536 705.488 97.008 679.885 C 122.611 654.414 153.466 641.678 189.573 641.678 C 225.68 641.678 256.502 654.414 282.039 679.885 C 293.922 691.833 303.08 704.963 309.513 719.275 Z " fill="rgb(255,255,255)"/></svg>