<?xml version="1.0" encoding="UTF-8" standalone="no"?><!-- Generator: Gravit.io --><svg xmlns="http://www.w3.org/2000/svg" xmlns:xlink="http://www.w3.org/1999/xlink" style="isolation:isolate" viewBox="576.126 649.408 232.594 246.183" width="232.594pt" height="246.183pt"><path d=" M 808.72 715.779 L 804.584 711.249 C 787.647 694.312 767.165 685.843 743.137 685.843 C 719.11 685.843 698.627 694.312 681.69 711.249 C 664.818 728.121 656.382 748.603 656.382 772.697 C 656.382 796.724 664.818 817.174 681.69 834.046 C 698.627 850.983 719.11 859.452 743.137 859.452 C 767.165 859.452 787.647 850.983 804.584 834.046 L 808.523 830.008 C 802.746 840.578 795.295 850.425 786.17 859.55 C 762.142 883.578 733.158 895.591 699.218 895.591 C 665.212 895.591 636.195 883.578 612.167 859.55 C 588.14 835.523 576.126 806.506 576.126 772.5 C 576.126 738.559 588.14 709.575 612.167 685.548 C 636.195 661.454 665.212 649.408 699.218 649.408 C 733.158 649.408 762.142 661.454 786.17 685.548 C 795.558 694.87 803.075 704.947 808.72 715.779 Z " fill="rgb(255,255,255)"/></svg>